<?xml version="1.0" standalone="no"?>
<!DOCTYPE svg PUBLIC "-//W3C//DTD SVG 20010904//EN"
 "http://www.w3.org/TR/2001/REC-SVG-20010904/DTD/svg10.dtd">
<svg version="1.0" xmlns="http://www.w3.org/2000/svg"
 width="300.000000pt" height="136.000000pt" viewBox="0 0 300.000000 136.000000"
 preserveAspectRatio="xMidYMid meet">
<metadata>
Created by potrace 1.10, written by Peter Selinger 2001-2011
</metadata>
<g transform="translate(0.000000,136.000000) scale(0.100000,-0.100000)"
fill="#000000" stroke="none">
<path d="M0 680 l0 -680 1500 0 1500 0 0 680 0 680 -1500 0 -1500 0 0 -680z
m1528 575 c6 -14 9 -31 6 -39 -12 -32 16 -24 32 9 21 45 26 40 18 -16 l-6 -44
-68 0 -68 0 -5 45 c-7 58 -1 62 18 17 8 -21 19 -37 25 -37 13 0 22 18 11 24
-10 6 8 66 20 66 3 0 11 -11 17 -25z m-211 -61 c-18 -7 -52 -21 -75 -33 -24
-12 -48 -19 -54 -15 -7 5 20 23 67 46 59 28 81 35 87 25 5 -8 -3 -16 -25 -23z
m446 2 c32 -14 57 -30 57 -37 0 -13 -10 -11 -102 27 -69 28 -91 51 -40 41 16
-3 54 -17 85 -31z m-655 -68 c8 -8 12 -48 12 -116 0 -100 1 -104 28 -132 52
-52 180 -50 217 3 10 15 15 45 15 98 0 63 4 81 22 104 43 55 117 69 183 35 22
-11 50 -20 64 -20 41 0 61 -27 61 -83 0 -48 -1 -49 -18 -34 -10 10 -30 17 -44
17 -24 0 -25 -2 -20 -57 5 -69 12 -79 62 -94 52 -16 123 -4 160 27 30 26 30
27 30 129 0 81 3 107 16 119 14 14 71 16 475 16 304 0 458 -3 454 -10 -4 -6
-166 -10 -454 -10 -347 0 -451 -3 -459 -13 -6 -6 -10 -55 -10 -108 0 -111 -8
-131 -68 -159 -83 -41 -200 -14 -223 51 -12 35 -14 88 -5 113 4 11 19 16 45
16 31 0 39 4 39 18 0 27 -20 42 -55 42 -19 0 -35 -7 -43 -20 -15 -25 -38 -26
-53 -1 -8 11 -20 17 -33 14 -21 -4 -21 -4 -1 12 13 11 31 15 53 11 43 -6 31
11 -13 20 -44 8 -100 -11 -125 -43 -16 -21 -20 -41 -20 -102 0 -87 -13 -115
-66 -137 -62 -26 -152 -12 -201 31 -27 22 -28 28 -33 137 l-5 113 -455 3
c-283 1 -458 6 -464 12 -7 7 148 10 455 10 348 0 468 -3 477 -12z m-30 -27
c15 -1 16 -61 0 -61 -6 0 -8 3 -5 6 3 4 2 15 -4 26 -10 19 -20 19 -227 14
-119 -3 -275 -6 -347 -6 -85 -1 -123 -4 -108 -10 12 -5 50 -9 85 -10 35 -1
108 -5 163 -10 76 -6 44 -8 -134 -4 -231 4 -234 5 -263 29 l-29 25 368 2 c318
3 448 2 501 -1z m1462 -1 l255 0 -26 -26 c-25 -25 -28 -25 -215 -31 -104 -2
-187 -3 -184 0 5 5 156 16 233 17 20 0 37 4 37 8 0 5 -98 12 -217 16 -119 4
-224 11 -232 17 -11 7 1 8 39 5 30 -3 170 -5 310 -6z m-373 -6 c-3 -3 -12 -4
-19 -1 -8 3 -5 6 6 6 11 1 17 -2 13 -5z m-497 -49 c0 -8 -7 -15 -15 -15 -16 0
-20 12 -8 23 11 12 23 8 23 -8z m-40 -5 c0 -5 -7 -10 -15 -10 -8 0 -15 -5 -15
-12 0 -6 -3 -8 -7 -4 -5 4 1 14 11 22 23 17 26 17 26 4z m-685 -20 c4 -7 -106
-10 -324 -10 -209 0 -332 4 -336 10 -4 7 106 10 324 10 209 0 332 -4 336 -10z
m1770 0 c-4 -6 -127 -10 -336 -10 -218 0 -328 3 -324 10 4 6 127 10 336 10
218 0 328 -3 324 -10z m-2348 -39 c22 -21 76 -29 197 -32 47 -1 63 -5 52 -11
-9 -5 -66 -7 -127 -5 -109 4 -112 5 -142 36 -35 35 -16 46 20 12z m2013 3 c0
-2 -12 -4 -27 -4 -21 0 -24 3 -14 9 13 8 41 5 41 -5z m277 -14 l-35 -30 -138
1 -139 2 129 8 c150 10 194 28 71 30 -44 1 -97 0 -119 -1 -25 -1 -36 2 -32 9
5 7 59 11 152 11 l145 0 -34 -30z m-1568 -27 c3 -58 21 -89 66 -110 30 -14 47
-33 30 -33 -15 0 -62 31 -83 53 -24 25 -40 93 -29 122 10 24 13 18 16 -32z
m501 10 c0 -24 -3 -33 -9 -25 -7 12 -4 62 5 62 2 0 4 -17 4 -37z m573 30 c-13
-2 -35 -2 -50 0 -16 2 -5 4 22 4 28 0 40 -2 28 -4z m124 1 c-3 -3 -12 -4 -19
-1 -8 3 -5 6 6 6 11 1 17 -2 13 -5z m-1342 -74 c4 -7 -86 -10 -264 -10 -169 0
-272 4 -276 10 -4 7 86 10 264 10 169 0 272 -4 276 -10z m1650 0 c-4 -6 -107
-10 -276 -10 -178 0 -268 3 -264 10 4 6 107 10 276 10 178 0 268 -3 264 -10z
m-962 -72 c12 -9 19 -20 15 -24 -12 -11 -68 53 -68 78 1 21 2 21 17 -7 8 -16
25 -38 36 -47z m-1006 45 c-4 -4 -20 -8 -35 -9 -49 -3 -53 -4 -47 -14 3 -5 36
-10 73 -10 37 0 74 -5 82 -10 10 -7 -19 -10 -98 -8 -106 3 -115 5 -137 28
l-25 26 97 2 c53 2 94 -1 90 -5z m1918 -19 c-28 -23 -39 -25 -148 -28 -65 -1
-120 1 -123 6 -3 4 19 8 48 9 106 1 147 4 154 12 4 4 -4 7 -17 8 -79 1 -172 9
-177 13 -3 4 62 6 144 5 l149 0 -30 -25z m-1600 -54 c4 -7 -68 -10 -209 -10
-132 0 -217 4 -221 10 -4 7 68 10 209 10 132 0 217 -4 221 -10z m1540 0 c-4
-6 -89 -10 -221 -10 -141 0 -213 3 -209 10 4 6 89 10 221 10 141 0 213 -3 209
-10z m-1748 -34 c5 -5 -47 -10 -109 -9 -24 0 -22 -13 4 -31 19 -14 20 -16 5
-16 -17 0 -87 49 -87 60 0 7 180 4 187 -4z m1693 -21 c-28 -29 -41 -35 -74
-34 l-41 1 35 10 c38 10 79 41 50 38 -38 -5 -100 1 -100 10 0 6 34 10 82 10
l82 0 -34 -35z m-1435 -55 c4 -7 -58 -10 -179 -10 -112 0 -187 4 -191 10 -4 7
58 10 179 10 112 0 187 -4 191 -10z m1380 0 c-4 -6 -79 -10 -191 -10 -121 0
-183 3 -179 10 4 6 79 10 191 10 121 0 183 -3 179 -10z m-1536 -29 c10 -6 -7
-9 -48 -10 -67 0 -85 -6 -61 -21 11 -7 786 -16 963 -12 9 1 15 -3 12 -9 -4 -5
-200 -9 -494 -9 l-487 0 -32 33 -31 32 82 2 c45 2 88 -1 96 -6z m1473 -26
l-39 -35 -273 0 c-151 0 -271 2 -269 4 11 11 97 16 302 17 216 1 250 5 246 25
-3 17 1 20 36 22 l36 3 -39 -36z m-69 -62 c-27 -20 -1476 -19 -1492 1 -10 12
95 14 749 13 611 -2 757 -4 743 -14z m-1873 -221 c0 -14 -7 -17 -40 -14 -65 7
-109 -6 -122 -34 -15 -33 3 -51 73 -69 57 -15 99 -51 99 -85 0 -10 -11 -32
-25 -48 -24 -29 -31 -31 -105 -34 -71 -3 -80 -1 -80 15 0 14 10 17 69 17 73 0
101 14 101 49 0 25 -16 36 -81 55 -65 18 -89 41 -89 82 0 59 39 83 133 84 58
0 67 -2 67 -18z m217 -8 c34 -25 44 -91 19 -129 -19 -29 -75 -48 -127 -43
l-39 4 0 -53 c0 -46 -3 -53 -20 -53 -18 0 -20 7 -20 70 l0 70 79 0 c71 0 82 2
95 22 21 29 20 57 -1 80 -13 14 -31 18 -95 18 -73 0 -78 1 -78 21 0 20 4 21
79 18 61 -3 86 -9 108 -25z m273 8 c76 -38 103 -134 59 -212 -28 -49 -66 -70
-129 -70 -65 0 -105 26 -132 87 -57 129 76 259 202 195z m272 8 c43 -12 68
-42 68 -81 0 -30 -34 -79 -56 -79 -23 0 -17 -15 32 -74 43 -53 44 -56 21 -56
-17 0 -36 16 -70 60 -44 56 -50 60 -87 60 l-40 0 0 -60 c0 -50 -3 -60 -17 -60
-16 0 -18 9 -15 75 l4 75 78 0 c73 0 80 2 99 26 26 33 26 39 1 64 -17 17 -33
20 -100 20 -73 0 -80 2 -80 20 0 18 7 20 63 20 34 0 79 -5 99 -10z m298 -10
c0 -17 -7 -20 -50 -20 l-50 0 0 -130 c0 -109 -2 -130 -15 -130 -13 0 -15 21
-15 130 l0 130 -50 0 c-43 0 -50 3 -50 20 0 19 7 20 115 20 108 0 115 -1 115
-20z m260 8 c-1 -7 -43 -67 -95 -133 l-94 -120 94 -3 c75 -2 95 -6 95 -17 0
-12 -21 -15 -120 -15 -89 0 -120 3 -120 13 0 6 41 64 90 127 49 63 90 117 90
120 0 3 -40 4 -90 2 -72 -3 -90 -1 -90 11 0 25 11 27 127 27 84 0 113 -3 113
-12z m283 1 c47 -13 71 -47 62 -89 -4 -17 -13 -34 -21 -37 -11 -4 -9 -11 11
-29 32 -30 34 -83 4 -110 -17 -15 -41 -20 -120 -24 -90 -5 -99 -3 -99 13 0 15
11 17 88 17 75 0 92 3 106 19 23 25 13 59 -21 72 -13 5 -58 9 -99 9 -59 0 -74
3 -74 15 0 12 14 15 68 15 77 0 116 16 120 48 6 42 -14 52 -104 52 -77 0 -84
2 -84 20 0 18 7 20 63 20 34 0 79 -5 100 -11z m207 -96 c-26 -60 -57 -129 -68
-155 -13 -30 -27 -48 -38 -48 -20 0 -21 -5 59 172 43 95 67 138 78 138 14 0 8
-21 -31 -107z m400 87 c0 -18 -7 -20 -70 -20 -63 0 -71 -2 -86 -25 -22 -34 -7
-51 62 -71 97 -28 126 -77 79 -132 -26 -31 -29 -32 -106 -32 -64 0 -79 3 -79
15 0 12 14 15 69 15 76 0 105 15 99 54 -2 16 -17 26 -65 41 -33 11 -70 29 -82
39 -26 24 -27 66 -2 97 16 20 31 25 98 30 43 3 79 6 81 7 1 1 2 -7 2 -18z
m250 -5 c0 -12 -19 -15 -110 -15 -91 0 -110 3 -110 15 0 12 19 15 110 15 91 0
110 -3 110 -15z m-572 -47 c11 -24 40 -87 66 -140 40 -87 43 -98 26 -98 -13 0
-25 14 -40 46 l-20 47 -70 -5 c-39 -3 -70 -4 -70 -2 0 26 17 34 71 34 l59 0
-30 61 c-19 37 -29 68 -25 80 9 27 11 25 33 -23z m572 -83 c0 -12 -19 -15
-110 -15 -91 0 -110 3 -110 15 0 12 19 15 110 15 91 0 110 -3 110 -15z m0
-129 c0 -12 -22 -15 -110 -18 -99 -3 -110 -1 -110 15 0 15 12 17 110 17 89 0
110 -3 110 -14z"/>
<path d="M1550 1070 c0 -5 4 -10 9 -10 6 0 13 5 16 10 3 6 -1 10 -9 10 -9 0
-16 -4 -16 -10z"/>
<path d="M2650 1070 c0 -13 20 -13 40 0 12 8 9 10 -12 10 -16 0 -28 -4 -28
-10z"/>
<path d="M742 333 c-57 -28 -79 -102 -47 -163 21 -41 53 -60 101 -60 113 0
151 160 52 220 -40 24 -62 25 -106 3z"/>
</g>
</svg>
