<?xml version="1.0" standalone="no"?>
<!DOCTYPE svg PUBLIC "-//W3C//DTD SVG 20010904//EN"
 "http://www.w3.org/TR/2001/REC-SVG-20010904/DTD/svg10.dtd">
<svg version="1.0" xmlns="http://www.w3.org/2000/svg"
 width="300.000000pt" height="136.000000pt" viewBox="0 0 300.000000 136.000000"
 preserveAspectRatio="xMidYMid meet">
<metadata>
Created by potrace 1.10, written by Peter Selinger 2001-2011
</metadata>
<g transform="translate(0.000000,136.000000) scale(0.100000,-0.100000)"
fill="#000000" stroke="none">
<path d="M1493 1250 c-7 -20 -8 -32 -1 -36 6 -4 6 -10 0 -16 -14 -14 -32 -1
-32 21 0 10 -7 24 -15 31 -14 12 -15 8 -9 -31 4 -24 8 -46 10 -48 2 -2 33 -4
69 -5 59 -2 65 0 65 19 0 11 3 31 7 44 8 32 -14 19 -27 -15 -12 -30 -35 -32
-27 -3 6 21 -10 69 -22 69 -4 0 -12 -13 -18 -30z"/>
<path d="M1278 1205 c-67 -27 -103 -51 -90 -59 14 -9 161 59 154 71 -5 8 -26
4 -64 -12z"/>
<path d="M1652 1220 c2 -7 22 -18 44 -25 21 -6 58 -22 82 -34 36 -18 42 -19
42 -6 0 10 -22 26 -57 41 -72 32 -117 42 -111 24z"/>
<path d="M176 1130 c6 -6 181 -11 464 -12 l455 -3 5 -113 c5 -109 6 -115 33
-138 36 -31 100 -47 161 -41 40 3 55 11 78 36 25 28 28 39 28 101 0 82 10 113
46 136 32 21 117 25 136 6 11 -11 7 -12 -22 -7 -24 4 -41 1 -55 -9 -20 -15
-20 -15 1 -16 12 0 27 -7 34 -15 17 -21 36 -19 54 7 14 19 20 21 53 12 28 -7
39 -15 41 -31 3 -21 -1 -23 -36 -23 -44 0 -52 -10 -52 -66 0 -55 23 -99 63
-117 47 -22 122 -21 175 3 58 26 75 67 71 174 -2 45 0 87 5 94 5 9 113 12 462
12 296 0 454 3 454 10 0 7 -160 10 -459 10 -404 0 -461 -2 -475 -16 -13 -12
-16 -38 -16 -119 0 -102 0 -103 -30 -129 -37 -31 -108 -43 -160 -27 -50 15
-58 26 -61 91 -3 51 -1 55 20 58 12 2 31 -4 42 -14 18 -17 19 -16 19 33 0 56
-20 83 -61 83 -14 0 -42 9 -64 20 -66 34 -140 20 -183 -35 -18 -23 -22 -41
-22 -104 0 -53 -5 -83 -15 -98 -37 -53 -165 -55 -217 -3 -27 28 -28 32 -28
132 0 68 -4 108 -12 116 -9 9 -129 12 -477 12 -307 0 -462 -3 -455 -10z"/>
<path d="M240 1075 c22 -24 29 -25 124 -24 60 1 91 4 76 8 -23 7 -24 8 -5 14
11 3 74 9 140 12 66 3 121 8 124 11 2 2 -105 4 -239 4 l-243 0 23 -25z"/>
<path d="M2470 1089 c25 -4 66 -8 91 -8 60 -1 110 -11 104 -21 -3 -4 13 -10
35 -12 34 -3 45 1 67 24 l27 28 -185 -1 c-126 -1 -170 -4 -139 -10z"/>
<path d="M285 1020 c4 -6 127 -10 336 -10 218 0 328 3 324 10 -4 6 -127 10
-336 10 -218 0 -328 -3 -324 -10z"/>
<path d="M2055 1020 c-4 -7 106 -10 324 -10 209 0 332 4 336 10 4 7 -106 10
-324 10 -209 0 -332 -4 -336 -10z"/>
<path d="M350 966 c31 -28 41 -32 75 -28 l40 5 -38 13 c-20 7 -47 20 -59 29
-42 29 -55 16 -18 -19z"/>
<path d="M2633 993 c-13 -2 -23 -9 -23 -14 0 -5 -15 -15 -32 -23 l-33 -14 41
-1 c32 -1 46 5 69 29 28 30 26 32 -22 23z"/>
<path d="M405 910 c4 -6 107 -10 276 -10 178 0 268 3 264 10 -4 6 -107 10
-276 10 -178 0 -268 -3 -264 -10z"/>
<path d="M2055 910 c-4 -7 86 -10 264 -10 169 0 272 4 276 10 4 7 -86 10 -264
10 -169 0 -272 -4 -276 -10z"/>
<path d="M455 870 c28 -31 46 -37 80 -30 l30 6 -35 16 c-19 9 -48 19 -65 23
l-29 6 19 -21z"/>
<path d="M2510 879 c-25 -3 -40 -7 -35 -8 6 -1 -1 -8 -14 -15 -24 -13 -24 -13
12 -18 27 -3 44 2 64 18 35 27 30 31 -27 23z"/>
<path d="M515 810 c4 -6 89 -10 221 -10 141 0 213 3 209 10 -4 6 -89 10 -221
10 -141 0 -213 -3 -209 -10z"/>
<path d="M2055 810 c-4 -7 68 -10 209 -10 132 0 217 4 221 10 4 7 -68 10 -209
10 -132 0 -217 -4 -221 -10z"/>
<path d="M581 754 c46 -48 80 -46 41 2 -9 12 -30 24 -45 27 l-29 5 33 -34z"/>
<path d="M2409 783 c-15 -2 -30 -12 -33 -21 -3 -9 -9 -23 -12 -29 -12 -27 33
-12 66 22 19 20 28 34 19 34 -7 -1 -26 -4 -40 -6z"/>
<path d="M625 700 c4 -6 79 -10 191 -10 121 0 183 3 179 10 -4 6 -79 10 -191
10 -121 0 -183 -3 -179 -10z"/>
<path d="M2005 700 c-4 -7 58 -10 179 -10 112 0 187 4 191 10 4 7 -58 10 -179
10 -112 0 -187 -4 -191 -10z"/>
<path d="M2284 658 c-22 -18 -45 -24 -114 -28 l-85 -5 94 -8 95 -8 35 36 c41
40 22 50 -25 13z"/>
<path d="M696 639 l29 -31 139 6 c77 3 142 8 144 11 3 3 -50 5 -117 5 -117 0
-168 10 -156 31 4 5 -10 9 -31 9 l-38 0 30 -31z"/>
<path d="M750 585 c11 -13 104 -15 753 -13 582 2 741 6 745 16 3 9 -152 12
-753 12 -674 0 -756 -2 -745 -15z"/>
<path d="M215 368 c-31 -16 -45 -39 -45 -72 0 -41 24 -64 89 -82 65 -19 81
-30 81 -55 0 -35 -28 -49 -101 -49 -59 0 -69 -2 -69 -18 0 -15 9 -17 78 -14
70 3 79 6 105 33 15 16 27 38 27 49 0 34 -42 70 -99 85 -70 18 -88 36 -73 69
13 28 57 41 122 34 33 -3 40 0 40 14 0 16 -9 18 -67 18 -38 0 -77 -6 -88 -12z"/>
<path d="M400 361 c0 -20 5 -21 78 -21 64 0 82 -4 95 -18 21 -23 22 -51 1 -80
-13 -20 -24 -22 -95 -22 l-79 0 0 -70 c0 -63 2 -70 20 -70 17 0 20 7 20 53 l0
53 39 -4 c52 -5 108 14 127 43 9 14 14 40 12 66 -4 62 -37 83 -139 88 -75 3
-79 2 -79 -18z"/>
<path d="M725 361 c-72 -44 -98 -115 -70 -188 25 -65 65 -93 132 -93 34 0 66
7 85 17 63 37 88 145 48 211 -41 67 -132 92 -195 53z m123 -31 c41 -25 66 -80
56 -123 -14 -65 -53 -97 -117 -97 -114 0 -147 173 -43 224 42 21 65 20 104 -4z"/>
<path d="M965 370 c-14 -22 10 -30 86 -30 65 0 82 -3 99 -20 21 -21 18 -42 -8
-72 -12 -14 -31 -18 -93 -18 l-77 0 -4 -75 c-3 -66 -1 -75 15 -75 14 0 17 10
17 60 l0 60 40 0 c37 0 43 -4 87 -60 34 -44 53 -60 70 -60 23 0 22 3 -21 56
-49 59 -55 74 -32 74 22 0 56 49 56 79 0 39 -25 69 -68 81 -47 13 -159 13
-167 0z"/>
<path d="M1200 360 c0 -17 7 -20 50 -20 l50 0 0 -130 c0 -109 2 -130 15 -130
13 0 15 21 15 130 l0 130 50 0 c43 0 50 3 50 20 0 19 -7 20 -115 20 -108 0
-115 -1 -115 -20z"/>
<path d="M1457 373 c-4 -3 -7 -12 -7 -19 0 -10 24 -14 89 -16 l90 -3 -89 -115
c-49 -63 -90 -121 -90 -127 0 -10 31 -13 120 -13 99 0 120 3 120 15 0 11 -20
15 -95 17 l-94 3 94 120 c52 66 94 126 95 133 0 9 -29 12 -113 12 -63 0 -117
-3 -120 -7z"/>
<path d="M1810 360 c0 -18 7 -20 78 -20 88 0 116 -13 110 -50 -5 -36 -43 -51
-121 -48 -57 3 -67 0 -67 -14 0 -13 14 -17 91 -20 76 -2 93 -6 105 -22 18 -26
18 -32 -6 -56 -17 -17 -33 -20 -105 -20 -80 0 -85 -1 -85 -21 0 -15 4 -19 16
-15 9 3 51 6 95 6 71 0 83 3 104 25 33 32 33 79 2 107 -23 21 -23 22 -5 40 38
38 12 100 -50 118 -20 5 -65 10 -99 10 -56 0 -63 -2 -63 -20z"/>
<path d="M2127 232 c-37 -81 -67 -151 -67 -155 0 -5 7 -7 17 -5 24 5 157 308
134 308 -11 0 -37 -45 -84 -148z"/>
<path d="M2497 371 c-67 -5 -82 -10 -98 -30 -25 -31 -24 -73 2 -97 12 -10 49
-28 82 -39 48 -15 63 -25 65 -41 6 -39 -23 -54 -99 -54 -55 0 -69 -3 -69 -15
0 -12 15 -15 79 -15 77 0 80 1 106 32 47 55 18 104 -79 132 -69 20 -84 37 -62
71 15 23 23 25 86 25 63 0 70 2 70 20 0 11 -1 19 -2 18 -2 -1 -38 -4 -81 -7z"/>
<path d="M2610 355 c0 -12 19 -15 110 -15 91 0 110 3 110 15 0 12 -19 15 -110
15 -91 0 -110 -3 -110 -15z"/>
<path d="M2225 331 c-4 -12 6 -43 25 -80 l30 -61 -59 0 c-56 0 -71 -8 -71 -37
0 -3 32 -3 71 -1 l71 5 20 -43 c13 -30 25 -44 38 -44 18 0 17 6 -14 73 -63
136 -98 207 -101 207 -2 0 -6 -9 -10 -19z"/>
<path d="M2610 225 c0 -12 19 -15 110 -15 91 0 110 3 110 15 0 12 -19 15 -110
15 -91 0 -110 -3 -110 -15z"/>
<path d="M2610 93 c0 -16 12 -18 110 -18 98 0 110 2 110 18 0 15 -12 17 -110
17 -98 0 -110 -2 -110 -17z"/>
</g>
</svg>
